<svg xmlns="http://www.w3.org/2000/svg" width="42" height="42" fill="none" viewBox="0 0 42 42"><path fill="#CC9B40" d="M0 0h42v42H0z"/><path fill="#fff" d="M21 22.75c-.987 0-1.817-.337-2.49-1.01-.674-.673-1.01-1.503-1.01-2.49V8.75c0-.987.337-1.817 1.01-2.49.673-.673 1.503-1.01 2.49-1.01.987 0 1.817.337 2.49 1.01.674.673 1.01 1.503 1.01 2.49v10.5c0 .987-.337 1.817-1.01 2.49-.673.674-1.503 1.01-2.49 1.01Zm-.875 13.125V29.72c-2.742-.252-5.031-1.372-6.869-3.362-1.837-1.99-2.756-4.36-2.756-7.108h1.75c0 2.42.853 4.484 2.56 6.19C16.515 27.148 18.58 28 21 28c2.42 0 4.484-.853 6.19-2.56 1.707-1.706 2.56-3.77 2.56-6.19h1.75c0 2.748-.919 5.118-2.756 7.108-1.838 1.99-4.127 3.11-6.869 3.362v6.155h-1.75ZM21 21c.496 0 .912-.168 1.247-.503.335-.335.503-.751.503-1.247V8.75c0-.496-.168-.911-.503-1.247A1.693 1.693 0 0 0 21 7c-.496 0-.912.168-1.247.503a1.693 1.693 0 0 0-.503 1.247v10.5c0 .496.168.912.503 1.247.335.335.751.503 1.247.503Z"/></svg>